<?xml version="1.0" encoding="utf-8"?>
<!-- Generator: Adobe Illustrator 23.0.6, SVG Export Plug-In . SVG Version: 6.00 Build 0)  -->
<svg version="1.1" id="Capa_1" xmlns="http://www.w3.org/2000/svg" xmlns:xlink="http://www.w3.org/1999/xlink" x="0px" y="0px"
	 viewBox="0 0 750 500" style="enable-background:new 0 0 750 500;" xml:space="preserve">
<style type="text/css">
	.st0{fill:url(#SVGID_1_);}
	.st1{fill:url(#SVGID_2_);}
	.st2{opacity:0.8;fill:url(#SVGID_3_);enable-background:new    ;}
	.st3{opacity:0.8;fill:url(#SVGID_4_);enable-background:new    ;}
	.st4{opacity:0.8;fill:url(#SVGID_5_);enable-background:new    ;}
	.st5{opacity:0.8;fill:url(#SVGID_6_);enable-background:new    ;}
	.st6{opacity:0.8;fill:url(#SVGID_7_);enable-background:new    ;}
	.st7{opacity:0.8;fill:url(#SVGID_8_);enable-background:new    ;}
	.st8{fill:#CBDFEF;}
	.st9{opacity:0.8;fill:url(#SVGID_9_);enable-background:new    ;}
	.st10{fill:#FFFFFF;}
	.st11{fill:url(#SVGID_10_);}
	.st12{fill:#809297;}
	.st13{fill:url(#XMLID_3_);}
	.st14{fill:#8A9EA2;}
	.st15{fill:url(#XMLID_4_);}
	.st16{fill:#92A7AC;}
	.st17{fill:url(#XMLID_5_);}
	.st18{opacity:0.1;fill:#FFFFFF;enable-background:new    ;}
	.st19{fill:#FDC870;}
	.st20{fill:url(#SVGID_11_);}
	.st21{fill:url(#XMLID_6_);}
	.st22{fill:url(#SVGID_12_);}
	.st23{fill:url(#SVGID_13_);}
	.st24{fill:url(#SVGID_14_);}
	.st25{opacity:0.7;fill:url(#SVGID_15_);enable-background:new    ;}
	.st26{opacity:0.7;fill:url(#SVGID_16_);enable-background:new    ;}
	.st27{fill:url(#SVGID_17_);}
	.st28{opacity:0.8;fill:url(#SVGID_18_);enable-background:new    ;}
	.st29{fill:url(#SVGID_19_);}
	.st30{fill:#FFB300;}
	.st31{fill:#FFA000;}
	.st32{fill:#FFCA28;}
	.st33{opacity:0.7;fill:url(#SVGID_20_);enable-background:new    ;}
	.st34{opacity:0.7;fill:url(#SVGID_21_);enable-background:new    ;}
	.st35{fill:url(#SVGID_22_);}
	.st36{opacity:0.8;fill:url(#SVGID_23_);enable-background:new    ;}
	.st37{fill:url(#SVGID_24_);}
	.st38{fill:#D32F2F;}
	.st39{opacity:0.8;fill:url(#SVGID_25_);enable-background:new    ;}
	.st40{fill:#EF5350;}
	.st41{fill:none;stroke:#FFFFFF;stroke-width:1.0404;stroke-miterlimit:10;}
	.st42{opacity:0.7;fill:url(#SVGID_26_);enable-background:new    ;}
	.st43{opacity:0.7;fill:url(#SVGID_27_);enable-background:new    ;}
	.st44{fill:url(#SVGID_28_);}
	.st45{fill:#25284C;}
	.st46{fill:#111638;}
	.st47{fill:#F5F5F5;}
	.st48{fill:#7B92B9;}
	.st49{fill:#6A7EA2;}
	.st50{fill:none;stroke:#FFFFFF;stroke-width:0.7521;stroke-miterlimit:10;}
	.st51{opacity:0.8;fill:url(#SVGID_29_);enable-background:new    ;}
	.st52{opacity:0.8;fill:url(#SVGID_30_);enable-background:new    ;}
	.st53{opacity:0.8;fill:url(#SVGID_31_);enable-background:new    ;}
	.st54{fill:url(#SVGID_32_);}
	.st55{fill:url(#SVGID_33_);}
	.st56{opacity:0.7;fill:url(#SVGID_34_);enable-background:new    ;}
	.st57{fill:url(#SVGID_35_);}
	.st58{fill:none;stroke:#FFFFFF;stroke-width:1.0404;stroke-linecap:round;stroke-linejoin:round;stroke-miterlimit:10;}
	.st59{fill:#FFEE58;}
	.st60{fill:none;stroke:#FFFFFF;stroke-width:0.5202;stroke-linecap:round;stroke-linejoin:round;stroke-miterlimit:10;}
	.st61{fill:url(#SVGID_36_);}
</style>
<g id="Object">
	<g>
		
			<linearGradient id="SVGID_1_" gradientUnits="userSpaceOnUse" x1="368.1057" y1="484.1212" x2="368.1057" y2="5.6454" gradientTransform="matrix(1 0 0 1 0 -8)">
			<stop  offset="1.860120e-03" style="stop-color:#AC24B9"/>
			<stop  offset="1" style="stop-color:#2E2142"/>
		</linearGradient>
		<path class="st0" d="M627.8,358.4c-0.8,4.4-1.6,8.7-2.6,13c-0.8,3.3-1.6,6.6-2.5,9.8c-5,17.9-12.1,35.8-21.8,51.7
			c-10,16.2-22.8,30.3-39.1,40.1c-8.8,5.3-18.2,9.1-28,12H200.5c-32.2-17.5-60.5-48.3-54.4-84.3c5.3-31.4,10.4-62.7-0.6-91.7
			c-8-21-23.8-38.3-32.6-59c-22-51.3,5.7-97.8,46.6-126.4c1.5-1,3-2,4.5-3c0.4-0.2,0.7-0.5,1.1-0.7c1.7-1.1,3.3-2.2,4.9-3.3
			c3.5-2.5,6.9-5,10.3-7.8h0c2.5-2,5-4.1,7.4-6.3c0.6-0.5,1.2-1,1.7-1.5c3.3-3,6.6-6.1,9.8-9.2c1.7-1.7,3.4-3.3,5.1-5
			c13.1-13.2,25.8-26.9,39.6-38.9c13.2-11.4,27.5-21.2,44.3-27.4c10.5-3.8,21.3-6.5,32.3-8c43.2-6.1,88.2,5.4,123.2,32.3
			c1.7,1.3,3.4,2.7,5.1,4.1c18.1,14.8,34.8,33.7,42.2,55.6c9.3,27.5,23,54,48,70.3c20.6,13.5,40.1,22.4,56.5,42
			c5.9,7,11,14.5,15.4,22.2c3.5,6.3,6.6,12.8,9.2,19.5c3.4,8.9,6,18.1,7.8,27.4C632.4,309.5,632,334.3,627.8,358.4z"/>
		
			<linearGradient id="SVGID_2_" gradientUnits="userSpaceOnUse" x1="129.611" y1="481.7725" x2="103.4985" y2="317.2635" gradientTransform="matrix(1 0 0 1 0 -8)">
			<stop  offset="1.860120e-03" style="stop-color:#AC24B9"/>
			<stop  offset="1" style="stop-color:#2E2142"/>
		</linearGradient>
		<path class="st1" d="M106.7,416.6c-0.5,9.1,0,18.7,4.6,26.6c3.8,6.6,12.8,11.7,19,7.2c4.7-3.4,5.1-10.4,3.5-16s-2.1-13.3-2.6-19.1
			c-0.7-9.1,7.7-30-8.5-31.1C108,383.3,107.2,407.6,106.7,416.6z"/>
		<g>
			
				<linearGradient id="SVGID_3_" gradientUnits="userSpaceOnUse" x1="227.5622" y1="485.3021" x2="232.5427" y2="416.9331" gradientTransform="matrix(1 0 0 1 0 -8)">
				<stop  offset="0" style="stop-color:#FFFFFF;stop-opacity:0"/>
				<stop  offset="1" style="stop-color:#662D8D"/>
			</linearGradient>
			<ellipse class="st2" cx="229.6" cy="448.9" rx="31.4" ry="12.4"/>
			
				<linearGradient id="SVGID_4_" gradientUnits="userSpaceOnUse" x1="387.9289" y1="486.9342" x2="392.9093" y2="418.5657" gradientTransform="matrix(1 0 0 1 0 -8)">
				<stop  offset="0" style="stop-color:#FFFFFF;stop-opacity:0"/>
				<stop  offset="1" style="stop-color:#662D8D"/>
			</linearGradient>
			<ellipse class="st3" cx="390" cy="450.5" rx="31.4" ry="12.4"/>
			
				<linearGradient id="SVGID_5_" gradientUnits="userSpaceOnUse" x1="400.392" y1="412.9214" x2="177.6271" y2="410.2046" gradientTransform="matrix(1 0 0 1 0 -8)">
				<stop  offset="0" style="stop-color:#FFFFFF;stop-opacity:0"/>
				<stop  offset="1" style="stop-color:#662D8D"/>
			</linearGradient>
			<polygon class="st4" points="208.8,394.3 237.2,394.3 300.4,423.7 292.1,442.4 321.7,442.4 386,402.5 307.3,375 260.5,364.4 			
				"/>
			
				<linearGradient id="SVGID_6_" gradientUnits="userSpaceOnUse" x1="335.8925" y1="189.7935" x2="215.4551" y2="324.7194" gradientTransform="matrix(1 0 0 1 0 -8)">
				<stop  offset="0" style="stop-color:#FFFFFF;stop-opacity:0"/>
				<stop  offset="1" style="stop-color:#662D8D"/>
			</linearGradient>
			<rect x="214.6" y="179.3" class="st5" width="155.8" height="102.2"/>
			
				<linearGradient id="SVGID_7_" gradientUnits="userSpaceOnUse" x1="704.7934" y1="392.3342" x2="448.9273" y2="392.3342" gradientTransform="matrix(1 0 0 1 0 -8)">
				<stop  offset="0" style="stop-color:#FFFFFF;stop-opacity:0"/>
				<stop  offset="1" style="stop-color:#662D8D"/>
			</linearGradient>
			<path class="st6" d="M625.4,333.2v27.7c-0.8,4.4-1.6,8.7-2.6,13c-0.8,3.3-1.6,6.6-2.5,9.8c-5,17.9-12.1,35.8-21.8,51.7H517V333.2
				L625.4,333.2L625.4,333.2z"/>
			
				<linearGradient id="SVGID_8_" gradientUnits="userSpaceOnUse" x1="667.3636" y1="315.6361" x2="394.6959" y2="315.6361" gradientTransform="matrix(1 0 0 1 0 -8)">
				<stop  offset="0" style="stop-color:#FFFFFF;stop-opacity:0"/>
				<stop  offset="1" style="stop-color:#662D8D"/>
			</linearGradient>
			<path class="st7" d="M625.4,288.3v72.6c-0.8,4.4-1.6,8.7-2.6,13H395.5V241.3h212.9c3.5,6.3,6.6,12.8,9.2,19.5
				C621,269.7,623.6,278.9,625.4,288.3z"/>
			<g>
				<path class="st8" d="M446.5,341.7v-73H283.4v73l0,0c0,12.1,8,24.1,23.9,33.3c31.8,18.4,83.5,18.4,115.3,0
					C438.5,365.8,446.5,353.7,446.5,341.7z"/>
				
					<linearGradient id="SVGID_9_" gradientUnits="userSpaceOnUse" x1="352.7871" y1="336.7544" x2="475.3912" y2="336.7544" gradientTransform="matrix(1 0 0 1 0 -8)">
					<stop  offset="0" style="stop-color:#FFFFFF;stop-opacity:0"/>
					<stop  offset="1" style="stop-color:#662D8D"/>
				</linearGradient>
				<path class="st9" d="M446.5,341.7v-73H283.4v73l0,0c0,12.1,8,24.1,23.9,33.3c31.8,18.4,83.5,18.4,115.3,0
					C438.5,365.8,446.5,353.7,446.5,341.7z"/>
				<ellipse class="st10" cx="364.9" cy="268.7" rx="81.6" ry="47.1"/>
				<g>
					
						<linearGradient id="SVGID_10_" gradientUnits="userSpaceOnUse" x1="364.9461" y1="191.9459" x2="364.9461" y2="353.3871" gradientTransform="matrix(1 0 0 1 0 -8)">
						<stop  offset="1.694780e-03" style="stop-color:#00D4C8"/>
						<stop  offset="1" style="stop-color:#00D2C7;stop-opacity:0"/>
					</linearGradient>
					<ellipse class="st11" cx="364.9" cy="259.6" rx="81.6" ry="47.1"/>
					<g>
						<path id="XMLID_25_" class="st12" d="M384.8,245.5c-0.3,8.5-9.7,15.1-21,14.7c-11.3-0.4-20.2-7.6-20-16.1
							c0.3-8.5,9.7-15.1,21-14.7C376.2,229.8,385.1,237,384.8,245.5z"/>
						
							<linearGradient id="XMLID_3_" gradientUnits="userSpaceOnUse" x1="343.8865" y1="252.8262" x2="384.8457" y2="252.8262" gradientTransform="matrix(1 0 0 1 0 -8)">
							<stop  offset="3.946110e-03" style="stop-color:#FFFFFF;stop-opacity:0"/>
							<stop  offset="1" style="stop-color:#92A7AC"/>
						</linearGradient>
						<path id="XMLID_24_" class="st13" d="M384.8,245.5c-0.3,8.5-9.7,15.1-21,14.7c-11.3-0.4-20.2-7.6-20-16.1
							c0.3-8.5,9.7-15.1,21-14.7C376.2,229.8,385.1,237,384.8,245.5z"/>
						<path id="XMLID_23_" class="st14" d="M398.4,227.2c-0.4,10.4-15.6,18.3-34.1,17.7c-18.5-0.6-33.1-9.5-32.8-19.9
							c0.4-10.4,15.6-18.3,34.1-17.7C384.1,207.9,398.8,216.8,398.4,227.2z"/>
						
							<linearGradient id="XMLID_4_" gradientUnits="userSpaceOnUse" x1="353.5286" y1="234.0613" x2="392.2672" y2="234.0613" gradientTransform="matrix(1 0 0 1 0 -8)">
							<stop  offset="3.946110e-03" style="stop-color:#FFFFFF;stop-opacity:0"/>
							<stop  offset="1" style="stop-color:#92A7AC"/>
						</linearGradient>
						<path id="XMLID_22_" class="st15" d="M398.4,227.2c-0.4,10.4-15.6,18.3-34.1,17.7c-18.5-0.6-33.1-9.5-32.8-19.9
							c0.4-10.4,15.6-18.3,34.1-17.7C384.1,207.9,398.8,216.8,398.4,227.2z"/>
						
							<ellipse id="XMLID_21_" transform="matrix(3.360119e-02 -0.9994 0.9994 3.360119e-02 138.717 572.4117)" class="st16" cx="365.3" cy="214.5" rx="18.8" ry="33.4"/>
						
							<linearGradient id="XMLID_5_" gradientUnits="userSpaceOnUse" x1="347.4049" y1="222.453" x2="394.0181" y2="222.453" gradientTransform="matrix(1 0 0 1 0 -8)">
							<stop  offset="3.946110e-03" style="stop-color:#FFFFFF;stop-opacity:0"/>
							<stop  offset="1" style="stop-color:#92A7AC"/>
						</linearGradient>
						<path id="XMLID_20_" class="st17" d="M398.8,215.6c-0.4,10.4-15.6,18.3-34.1,17.7s-33.1-9.5-32.8-19.9
							c0.4-10.4,15.6-18.3,34.1-17.7C384.5,196.3,399.2,205.2,398.8,215.6z"/>
						<path id="XMLID_19_" class="st18" d="M337,218.7c-0.9,0.5-2.3-0.3-3-1.8c-0.7-1.4-0.6-3,0.4-3.4c0.9-0.5,2.3,0.3,3,1.8
							C338.1,216.7,337.9,218.2,337,218.7z"/>
						<path id="XMLID_18_" class="st18" d="M338.8,221.5c-0.6,0.3-1.3,0.1-1.6-0.4c-0.3-0.5,0-1.2,0.6-1.5c0.6-0.3,1.3-0.1,1.6,0.4
							C339.7,220.5,339.4,221.2,338.8,221.5z"/>
						<path id="XMLID_17_" class="st18" d="M337.1,231.2c-0.9,0.5-2.3-0.3-3-1.8c-0.7-1.4-0.6-3,0.4-3.4c0.9-0.5,2.3,0.3,3,1.8
							C338.2,229.2,338,230.8,337.1,231.2z"/>
						<path id="XMLID_13_" class="st18" d="M338.9,234c-0.6,0.3-1.3,0.1-1.6-0.4c-0.3-0.5,0-1.2,0.6-1.5c0.6-0.3,1.3-0.1,1.6,0.4
							C339.8,233,339.5,233.7,338.9,234z"/>
						<path id="XMLID_12_" class="st19" d="M425.8,136.1c0.2-33.7-26.9-56.1-60.5-56.3c-33.6-0.2-61,21.8-61.2,55.6
							c-0.2,33,16.7,38,25.3,55c2.7,5.3,1.7,10,1.7,10c-0.1,12.8,13.9,20.1,33.3,20.2c19.4,0.1,33.5-7,33.6-19.8c0,0-0.9-4.7,1.8-10
							C408.6,173.9,425.6,169.1,425.8,136.1z"/>
						
							<linearGradient id="SVGID_11_" gradientUnits="userSpaceOnUse" x1="350.858" y1="136.1623" x2="403.6064" y2="198.5815" gradientTransform="matrix(1 0 0 1 0 -8)">
							<stop  offset="3.946110e-03" style="stop-color:#FFFFFF;stop-opacity:0"/>
							<stop  offset="1" style="stop-color:#FDC870"/>
						</linearGradient>
						<path class="st20" d="M425.8,136.1c0,2.1-0.1,4-0.2,5.9c-0.1,1.4-0.2,2.8-0.4,4.1c-0.9,6.7-2.6,12-4.8,16.4
							c0,0.1-0.1,0.2-0.1,0.3c-5.6,11-14.1,16.8-19.7,26.9c-0.2,0.4-0.4,0.8-0.6,1.2c-2.8,5.3-1.8,10-1.8,10c0,0.5,0,1-0.1,1.5
							c0,0.2,0,0.4-0.1,0.7c0,0.1,0,0.2,0,0.3c0,0.2-0.1,0.4-0.1,0.6c0,0.2-0.1,0.4-0.1,0.6c-0.1,0.3-0.2,0.6-0.2,0.9c0,0,0,0,0,0.1
							c-0.2,0.8-0.6,1.6-1,2.3c0,0,0,0.1-0.1,0.1c-3.3,6.3-11.1,10.4-21.6,11.9c-3.2,0.5-6.6,0.7-10.2,0.7
							c-19.4-0.1-33.4-7.4-33.3-20.2c0,0,1-4.7-1.7-10c-8.6-17-25.5-22-25.3-55c0.2-33.7,27.6-55.8,61.2-55.6
							C398.9,80,426,102.4,425.8,136.1z"/>
						
							<linearGradient id="XMLID_6_" gradientUnits="userSpaceOnUse" x1="396.3007" y1="172.6837" x2="396.3007" y2="203.1218" gradientTransform="matrix(0.9996 -2.730000e-02 2.730000e-02 0.9996 -36.9718 -41.5054)">
							<stop  offset="3.946110e-03" style="stop-color:#FFFFFF;stop-opacity:0"/>
							<stop  offset="1" style="stop-color:#FDC870"/>
						</linearGradient>
						<path id="XMLID_1_" class="st21" d="M384.2,165.2c-1.1-6.4-8.3-14.9-13.5-6.5c-3.6,5.8-3.3,13.8-3.3,20.6v0.4
							c-0.6,0-1.2,0.1-1.8,0.1c-0.2,0-0.3,0-0.5,0.1c-0.1,0-0.3-0.1-0.5-0.1c-0.6,0-1.2,0-1.8-0.1v-0.4c0.1-5.8,0.1-11.8-1.7-17.3
							c-2.8-8.8-10.9-8.4-14.1-0.1c-3,7.9-0.2,13.9,5.2,17.5c2.1,1.4,4.6,2.4,7.3,3c0,0.2,0,0.3,0,0.4c0,4.3,0,8.7-0.1,13
							c0,3.9,0,7.7-0.1,11.6c0,1.7,0,3.5,0,5.2c0,2.6,0,5.1,0,7.7c1,0.1,2.1,0.1,3.2,0.2c0-2.7,0-5.3,0-8c0-1.8,0-3.5,0-5.3
							c0-3.9,0-7.7,0.1-11.6c0-4.3,0-8.5,0.1-12.8c0.6,0.1,1.2,0.1,1.8,0.1c0.2,0,0.3,0,0.5-0.1c0.1,0,0.3,0.1,0.5,0.1
							c0.6,0,1.2,0,1.8-0.1c0,4.3-0.1,8.6-0.1,12.9c0,3.9-0.1,7.7-0.1,11.6c0,1.7,0,3.4,0,5.2c0,0.4,0,0.8,0,1.2c0,2.2,0,4.5,0,6.7
							v0c0,0,0,0,0,0c0,0,0,0,0,0c0,0,0,0,0.1,0c0,0,0,0,0,0h0.2c0.4,0,0.7,0,1,0c0.3,0,0.6,0,0.9,0c0.3,0,0.6,0,0.9-0.1
							c0-2.6,0-5.1,0-7.7c0-0.8,0-1.5,0-2.3c0-0.9,0-1.8,0-2.7c0-3.9,0-7.8,0.1-11.6c0-4.4,0-8.8,0.1-13.1v-0.4
							C379,180.8,385.9,175.2,384.2,165.2z M349.2,168.1c0-3.5,3.6-14,7.9-7.8c3.4,4.8,2.9,12.6,2.7,19
							C354.1,178,349.2,174.8,349.2,168.1z M370.5,179.3c-0.2-6.4-0.6-14.2,2.9-19c4.5-6.1,7.9,4.4,7.9,7.9
							C381.1,175,376.2,178.2,370.5,179.3z"/>
						
							<linearGradient id="SVGID_12_" gradientUnits="userSpaceOnUse" x1="416.4985" y1="197.4731" x2="369.8902" y2="119.1711" gradientTransform="matrix(0.9996 -2.730000e-02 2.730000e-02 0.9996 -36.9718 -41.5054)">
							<stop  offset="3.946110e-03" style="stop-color:#FFFFFF;stop-opacity:0"/>
							<stop  offset="1" style="stop-color:#FFFFFF"/>
						</linearGradient>
						<path class="st22" d="M394.2,127.7c-16.4,10.1-43.4,10.8-60.3,1.6c-16.9-9.2-17.3-24.7-0.9-34.8s43.4-10.8,60.3-1.6
							C410.2,102.1,410.6,117.7,394.2,127.7z"/>
						
							<linearGradient id="SVGID_13_" gradientUnits="userSpaceOnUse" x1="332.7798" y1="175.2409" x2="282.4088" y2="150.8475" gradientTransform="matrix(1 0 0 1 0 -8)">
							<stop  offset="3.946110e-03" style="stop-color:#FFFFFF;stop-opacity:0"/>
							<stop  offset="1" style="stop-color:#FFFFFF"/>
						</linearGradient>
						<path class="st23" d="M312.6,153c2.8,8.2,8.1,15.8,13.8,22.2c5.9,6.7,12.9,13.3,14.1,22.1c0.2,1.2,0.2,2.5,0.8,3.6
							c0.6,1.1,2,1.9,3.1,1.4c0.6-0.3,1-0.8,1.3-1.3c2.4-3.9,3.2-8.7,2.3-13.1c-1.5-7.2-7-12.4-11.7-17.7
							c-4.5-5.1-8.3-11.7-9.8-18.5c-0.9-4.2-1.2-8.6-2.1-12.8c-0.4-2-1-4-2.3-5.7c-1.2-1.7-3.2-2.9-5.2-2.9
							c-2.2,0.1-4.1,1.6-5.2,3.6c-1.1,1.9-1.3,4.2-1.4,6.4C310.3,144.6,311.1,148.9,312.6,153z"/>
						
							<linearGradient id="SVGID_14_" gradientUnits="userSpaceOnUse" x1="357.5889" y1="228.2135" x2="400.511" y2="205.1014" gradientTransform="matrix(1 0 0 1 0 -8)">
							<stop  offset="3.946110e-03" style="stop-color:#FFFFFF;stop-opacity:0"/>
							<stop  offset="1" style="stop-color:#FDC870"/>
						</linearGradient>
						<path class="st24" d="M425.8,136.1c0,2-0.1,4-0.2,5.9c-0.1,1.4-0.2,2.8-0.4,4.1c-0.9,6.4-2.6,11.8-4.8,16.4
							c0,0.1-0.1,0.2-0.1,0.3c-5.6,11-14.1,16.8-19.7,26.9c-0.2,0.4-0.4,0.8-0.6,1.2c-2.8,5.3-1.8,10-1.8,10c0,0.5,0,1-0.1,1.5
							c0,0.2,0,0.4-0.1,0.7c0,0.1,0,0.2,0,0.3c0,0.2-0.1,0.4-0.1,0.6c0,0.2-0.1,0.4-0.1,0.6c-0.1,0.3-0.2,0.6-0.2,0.9c0,0,0,0,0,0.1
							c-0.2,0.8-0.6,1.6-1,2.3c0,0,0,0.1-0.1,0.1c1.7,2.4,2.7,5,2.6,7.7c-0.1,2-0.7,4-1.8,5.8c1,1.9,1.5,3.8,1.4,5.9
							c-0.2,6.2-5.7,11.5-14.1,14.6c0.4,1.2,0.5,2.4,0.5,3.7c-0.3,8.5-9.7,15.1-21,14.7c-0.6,0-1.3-0.1-1.9-0.1
							c2.5-3,5.2-5.8,6.6-8.6c4.9-9.7,5.5-21,6.1-31.7c0-0.2,0-0.4,0-0.6c0.5-9,1-18,1.5-26.9c0-0.9,0.1-1.8,0.4-2.6
							c1.1-2.4,4.2-3,6.8-3.6C411.8,179.4,423.3,158.3,425.8,136.1z"/>
						<path class="st19" d="M423.3,71.5c0,3-2.4,5.4-5.4,5.4c-3,0-5.4-2.4-5.4-5.4c0-3,2.4-5.4,5.4-5.4
							C420.8,66,423.3,68.5,423.3,71.5z"/>
						<path class="st19" d="M423.3,221.6c0,3-2.4,5.4-5.4,5.4c-3,0-5.4-2.4-5.4-5.4s2.4-5.4,5.4-5.4S423.3,218.6,423.3,221.6z"/>
						<circle class="st19" cx="319.4" cy="198.2" r="5.4"/>
						<circle class="st19" cx="429.2" cy="55.4" r="3.4"/>
						<circle class="st19" cx="423.3" cy="190.9" r="3.4"/>
						<circle class="st19" cx="328.3" cy="53.4" r="3.4"/>
						<circle class="st19" cx="432.6" cy="233.2" r="3.4"/>
						<circle class="st19" cx="310.4" cy="250.8" r="3.4"/>
					</g>
					<g>
						
							<linearGradient id="SVGID_15_" gradientUnits="userSpaceOnUse" x1="232.6512" y1="188.0571" x2="377.2328" y2="188.0571" gradientTransform="matrix(1 0 0 1 0 -8)">
							<stop  offset="1.694780e-03" style="stop-color:#00D4C8"/>
							<stop  offset="1" style="stop-color:#00D2C7;stop-opacity:0"/>
						</linearGradient>
						<path class="st25" d="M446.5,259.6V53.4c0,12.1-8,24.1-23.9,33.3c-31.8,18.4-83.5,18.4-115.3,0c-15.9-9.2-23.9-21.2-23.9-33.3
							v206.2l0,0c0,12.1,8,24.1,23.9,33.3c31.8,18.4,83.5,18.4,115.3,0C438.5,283.7,446.5,271.6,446.5,259.6z"/>
						
							<linearGradient id="SVGID_16_" gradientUnits="userSpaceOnUse" x1="482.3179" y1="185.5995" x2="380.8321" y2="185.5995" gradientTransform="matrix(1 0 0 1 0 -8)">
							<stop  offset="1.694780e-03" style="stop-color:#00D4C8"/>
							<stop  offset="1" style="stop-color:#00D2C7;stop-opacity:0"/>
						</linearGradient>
						<path class="st26" d="M449,257.1V51c0,12.1-8,24.1-23.9,33.3c-31.8,18.4-83.5,18.4-115.3,0C293.8,75.1,285.9,63,285.9,51
							v206.2l0,0c0,12,8,24.1,23.9,33.3c31.8,18.4,83.5,18.4,115.3,0C441,281.2,449,269.2,449,257.1z"/>
						
							<linearGradient id="SVGID_17_" gradientUnits="userSpaceOnUse" x1="364.9461" y1="-14.2169" x2="364.9461" y2="147.2243" gradientTransform="matrix(1 0 0 1 0 -8)">
							<stop  offset="1.694780e-03" style="stop-color:#00D4C8"/>
							<stop  offset="1" style="stop-color:#00D2C7;stop-opacity:0"/>
						</linearGradient>
						<ellipse class="st27" cx="364.9" cy="53.4" rx="81.6" ry="47.1"/>
					</g>
				</g>
				<path class="st10" d="M295.6,185L295.6,185c-3.4-2-5.6-5.7-5.6-9.6v-75c0-1.7,1.8-2.7,3.2-1.9l0,0c3.5,2,5.7,5.8,5.7,9.9v74.6
					C299,184.8,297.1,185.9,295.6,185z"/>
				<path class="st10" d="M295.6,218.8L295.6,218.8c-3.4-2-5.6-5.7-5.6-9.6v-10.6c0-1.7,1.8-2.7,3.2-1.9l0,0c3.5,2,5.7,5.8,5.7,9.9
					v10.3C299,218.6,297.1,219.6,295.6,218.8z"/>
			</g>
			<g>
				<path class="st8" d="M572.8,403.8v-49.3H462.5v49.3l0,0c0,8.1,5.4,16.3,16.2,22.5c21.5,12.4,56.4,12.4,78,0
					C567.4,420.1,572.8,411.9,572.8,403.8z"/>
				
					<linearGradient id="SVGID_18_" gradientUnits="userSpaceOnUse" x1="509.3892" y1="403.0382" x2="592.2866" y2="403.0382" gradientTransform="matrix(1 0 0 1 0 -8)">
					<stop  offset="0" style="stop-color:#FFFFFF;stop-opacity:0"/>
					<stop  offset="1" style="stop-color:#662D8D"/>
				</linearGradient>
				<path class="st28" d="M572.8,403.8v-49.3H462.5v49.3l0,0c0,8.1,5.4,16.3,16.2,22.5c21.5,12.4,56.4,12.4,78,0
					C567.4,420.1,572.8,411.9,572.8,403.8z"/>
				<ellipse class="st10" cx="517.6" cy="354.5" rx="55.1" ry="31.8"/>
				<g>
					
						<linearGradient id="SVGID_19_" gradientUnits="userSpaceOnUse" x1="517.6157" y1="305.1426" x2="517.6157" y2="414.2993" gradientTransform="matrix(1 0 0 1 0 -8)">
						<stop  offset="1.694780e-03" style="stop-color:#00D4C8"/>
						<stop  offset="1" style="stop-color:#00D2C7;stop-opacity:0"/>
					</linearGradient>
					<ellipse class="st29" cx="517.6" cy="348.3" rx="55.1" ry="31.8"/>
					<g>
						<path class="st19" d="M557.2,259.6c0,2-1.6,3.7-3.7,3.7c-2,0-3.7-1.6-3.7-3.7s1.6-3.7,3.7-3.7
							C555.5,255.9,557.2,257.6,557.2,259.6z"/>
						<circle class="st19" cx="549.8" cy="338.7" r="3.7"/>
						<path class="st19" d="M490.5,310.4c0,2-1.6,3.7-3.7,3.7c-2,0-3.7-1.6-3.7-3.7c0-2,1.6-3.7,3.7-3.7
							C488.8,306.8,490.5,308.4,490.5,310.4z"/>
						<path class="st19" d="M548.5,244c0,1.3-1,2.3-2.3,2.3c-1.3,0-2.3-1-2.3-2.3s1-2.3,2.3-2.3C547.4,241.7,548.5,242.8,548.5,244z
							"/>
						<path class="st19" d="M538.1,348.3c0,1.3-1,2.3-2.3,2.3c-1.3,0-2.3-1-2.3-2.3c0-1.3,1-2.3,2.3-2.3
							C537.1,346,538.1,347,538.1,348.3z"/>
						<path class="st19" d="M488.7,240.7c0,1.3-1,2.3-2.3,2.3s-2.3-1-2.3-2.3c0-1.3,1-2.3,2.3-2.3S488.7,239.4,488.7,240.7z"/>
						<path class="st19" d="M565.7,308.8c0,1.3-1,2.3-2.3,2.3s-2.3-1-2.3-2.3s1-2.3,2.3-2.3S565.7,307.5,565.7,308.8z"/>
						<path class="st19" d="M483.1,342.4c0,1.3-1,2.3-2.3,2.3c-1.3,0-2.3-1-2.3-2.3c0-1.3,1-2.3,2.3-2.3
							C482,340,483.1,341.1,483.1,342.4z"/>
						<g>
							<path class="st30" d="M552.2,299.9c0,0.2,0,0.4,0,0.5c0,2.2-0.2,4.2-0.6,6c-0.2,1.1-0.5,2.2-0.8,3.2
								c-1.4,4.3-3.8,7.5-6.9,9.5l0,0l-0.3,0.2c-0.2,0.1-0.3,0.2-0.5,0.3l-8.5,4.9l-1.9-3.3c-3.3-0.5-6.9-1.7-10.7-3.9
								c-16.7-9.6-30.3-33.2-30.3-52.5c0-2,0.2-3.8,0.4-5.5c0.2-1.1,0.4-2.1,0.7-3.1c0.2-0.8,0.5-1.6,0.8-2.3l-2-3.4l8.6-5
								c0.3-0.2,0.6-0.3,0.9-0.5l0.5-0.3l0,0c3.5-1.7,7.7-2,12.5-0.8c1,0.3,2,0.6,3,1c1.6,0.6,3.3,1.4,5,2.4
								c0.1,0.1,0.3,0.2,0.4,0.2c0.7,0.4,1.5,0.9,2.2,1.4c1.5,1,2.9,2,4.3,3.2c0.6,0.5,1.3,1.1,1.9,1.6c1.2,1.1,2.4,2.3,3.6,3.6
								c0.5,0.6,1.1,1.2,1.6,1.8c1.1,1.3,2.1,2.6,3.1,3.9c0.4,0.6,0.9,1.3,1.3,1.9c0.9,1.3,1.8,2.8,2.7,4.2c0.4,0.7,0.8,1.4,1.2,2
								c0.8,1.5,1.6,2.9,2.2,4.4c0.3,0.7,0.7,1.4,1,2.1c0.7,1.6,1.3,3.1,1.8,4.7c0.3,0.8,0.5,1.5,0.7,2.3c0.5,1.7,0.9,3.3,1.3,5
								c0.2,0.8,0.3,1.6,0.5,2.4c0.3,1.8,0.5,3.6,0.6,5.4C552.2,298.5,552.2,299.2,552.2,299.9z"/>
							<g>
								<path class="st31" d="M516.9,245L492,259.4l-2,1.2l-0.6-2.4l3.3-1.9l21.2-12.2C514.9,244.3,515.9,244.6,516.9,245z"/>
								<path class="st31" d="M524.5,249.1l-30.2,17.4l-0.6-2.4l28.5-16.5C523,248.1,523.8,248.6,524.5,249.1z"/>
								<path class="st31" d="M530.7,254l-32,18.5l-0.6-2.4l30.7-17.7C529.4,252.8,530.1,253.4,530.7,254z"/>
								<path class="st31" d="M535.8,259.4L503,278.3l-0.6-2.4l31.9-18.4C534.8,258.1,535.3,258.8,535.8,259.4z"/>
								<path class="st31" d="M540.3,265.2l-32.9,19l-0.6-2.4l32.2-18.6C539.4,263.9,539.9,264.6,540.3,265.2z"/>
								<path class="st31" d="M544.1,271.4l-32.4,18.7l-0.6-2.4l31.9-18.4C543.4,270.1,543.8,270.8,544.1,271.4z"/>
								<path class="st31" d="M547.3,278L516,296.1l-0.6-2.4l31-17.9C546.7,276.6,547,277.3,547.3,278z"/>
								<path class="st31" d="M549.8,284.9l-29.5,17l-0.6-2.4l29.4-17C549.4,283.4,549.6,284.2,549.8,284.9z"/>
								<path class="st31" d="M551.6,292.4l-26.9,15.5l-0.6-2.4l27-15.6C551.3,290.7,551.4,291.6,551.6,292.4z"/>
								<path class="st31" d="M552.2,299.9c0,0.2,0,0.4,0,0.5L529,313.8l-0.6-2.4l23.8-13.7C552.2,298.5,552.2,299.2,552.2,299.9z"
									/>
								<path class="st31" d="M551.6,306.5c-0.2,1.1-0.5,2.2-0.8,3.2l-17.5,10.1l-0.6-2.4L551.6,306.5z"/>
							</g>
							
								<ellipse transform="matrix(0.866 -0.5 0.5 0.866 -74.9005 295.1467)" class="st32" cx="513.3" cy="287.3" rx="24.7" ry="42.8"/>
							<path class="st30" d="M518.9,263.2c-1.1,0-2.1,0-3.2,0c1.1,1,2.3,2,3.3,3.2l1.9-1.1C520.2,264.6,519.5,263.9,518.9,263.2z
								 M492,259.4c0,0.1,0,0.1,0,0.2c0.2,0.1,0.4,0.1,0.7,0.2c0.2-0.4,0.5-0.9,0.8-1.2L492,259.4z M518.9,263.2c-1.1,0-2.1,0-3.2,0
								c1.1,1,2.3,2,3.3,3.2l1.9-1.1C520.2,264.6,519.5,263.9,518.9,263.2z M492,259.6c0.2,0.1,0.4,0.1,0.7,0.2
								c0.2-0.4,0.5-0.9,0.8-1.2l-1.5,0.9C492,259.5,492,259.5,492,259.6z M538,300.2c-0.1-0.8-0.2-1.7-0.4-2.5
								c-0.3-1.7-0.7-3.3-1.2-5c-0.2-0.8-0.4-1.5-0.7-2.3c-0.5-1.6-1.1-3.1-1.7-4.7c-0.3-0.7-0.6-1.5-0.9-2.2
								c-0.7-1.5-1.4-3-2.2-4.4c-0.4-0.7-0.8-1.4-1.2-2c-0.8-1.4-1.7-2.8-2.7-4.2c-0.4-0.6-0.9-1.3-1.4-1.9c-1-1.4-2-2.7-3.1-3.9
								c-0.5-0.6-1.1-1.2-1.6-1.8c-0.7-0.7-1.4-1.4-2.1-2.1c-0.5-0.5-1.1-1-1.7-1.5c-0.6-0.6-1.3-1.1-1.9-1.6
								c-1.5-1.2-3-2.2-4.5-3.1c0,0-0.1,0-0.1-0.1c-0.8-0.5-1.6-0.9-2.4-1.2c-2.2-1.1-4.4-1.7-6.4-2c-0.7-0.1-1.4-0.2-2.1-0.2
								c-1.1,0-2.1,0.1-3,0.4c-1.7,0.4-3,1.2-4.1,2.2l-0.3,0.3l0,0c-0.8,0.8-1.4,1.7-1.9,2.7c-0.2,0.4-0.4,0.8-0.6,1.3v0
								c-1.4,3.4-1.6,7.1-1.6,9.5c0,16.6,11.6,37.3,25.7,46.6c0.6,0.4,1.3,0.8,1.9,1.2c3.9,2.2,7.6,3.4,10.9,3.4
								c1.1,0,2.2-0.1,3.1-0.4c1.2-0.3,2.3-0.9,3.2-1.6c0.5-0.3,0.9-0.7,1.3-1.2c0.7-0.8,1.3-1.7,1.8-2.6v0c1.1-2.2,1.6-4.6,1.9-6.8
								c0.1-1,0.2-2,0.2-2.8c0-0.3,0-0.6,0-0.9C538.3,303.3,538.2,301.8,538,300.2z M535.7,309.9c-0.5,2.8-1.7,5.8-4,7.6
								c-1.2,0.9-2.8,1.5-4.8,1.5c-0.7,0-1.4-0.1-2.2-0.2h0c-2-0.3-4.2-1.1-6.5-2.4h0c-0.4-0.2-0.7-0.4-1.1-0.6
								c-14.4-8.3-26.6-29.4-26.6-46c0-2,0.2-5.3,1.3-8.2c0.2-0.7,0.6-1.3,0.9-1.9c0.2-0.4,0.5-0.9,0.8-1.2l0,0
								c1.1-1.4,2.7-2.4,4.7-2.7h0c0.5-0.1,1-0.1,1.5-0.1c1.9,0,4,0.5,6.2,1.4c0.9,0.3,1.7,0.8,2.6,1.2c0.3,0.2,0.7,0.4,1,0.6
								c1.3,0.7,2.5,1.5,3.7,2.4c0.7,0.5,1.3,1,2,1.6c0.2,0.1,0.3,0.2,0.4,0.4h0c1.1,1,2.3,2,3.3,3.2c0.6,0.6,1.1,1.2,1.6,1.8
								c1.1,1.2,2.1,2.5,3.2,3.9c0.5,0.6,0.9,1.3,1.4,1.9c0.9,1.3,1.8,2.7,2.7,4.2c0.4,0.7,0.8,1.3,1.2,2c0.8,1.5,1.5,2.9,2.2,4.4
								c0.3,0.7,0.6,1.4,0.9,2.2c0.6,1.6,1.2,3.1,1.7,4.7v0c0.3,0.8,0.5,1.5,0.7,2.3c0.4,1.7,0.8,3.4,1.1,5.1
								c0.1,0.9,0.2,1.7,0.3,2.5c0.1,1.2,0.2,2.3,0.2,3.5c0,0.6,0,1.4-0.1,2.2C536,307.9,535.9,308.9,535.7,309.9z M492,259.4
								c0,0.1,0,0.1,0,0.2c0.2,0.1,0.4,0.1,0.7,0.2c0.2-0.4,0.5-0.9,0.8-1.2L492,259.4z M518.9,263.2c-1.1,0-2.1,0-3.2,0
								c1.1,1,2.3,2,3.3,3.2l1.9-1.1C520.2,264.6,519.5,263.9,518.9,263.2z"/>
							<g>
								<path class="st30" d="M521.8,292.7c-0.3-0.7-0.7-1.4-1.1-2.1c-0.9-1.4-2-2.7-3.2-3.8c-0.6-0.6-1.3-1.1-1.9-1.6
									c-0.5-0.4-1-0.7-1.4-1.1c-1.2-0.8-2.1-1.5-2.7-2.2c-0.5-0.6-0.8-1.2-0.8-1.9c0-0.1,0-0.2,0-0.3c0.1-0.4,0.4-0.6,0.9-0.5
									c0.5,0,1.2,0.3,1.9,0.7c0.2,0.1,0.5,0.3,0.7,0.5c1.4,0.9,2.7,2,3.8,3.5c0.1,0.2,0.3,0.3,0.4,0.5l2.3-2.1l0,0h0l0.6-0.5
									c-1-1.4-2-2.7-3.1-3.8c-0.6-0.6-1.2-1.1-1.8-1.6c-0.2-0.2-0.4-0.3-0.6-0.4v-3.1l-1.6-0.9l-2.4-1.4l-1.1-0.6v3.2
									c-0.8-0.3-1.6-0.5-2.3-0.5h0c-1.7-0.1-3,0.5-3.5,2c-0.2,0.6-0.3,1.2-0.3,2c0,0.3,0,0.6,0,0.9c0.2,2.7,1.2,4.9,2.6,6.8l0,0
									c0,0,0,0.1,0,0.1c1,1.3,2.3,2.5,3.7,3.6c0.7,0.5,1.4,1,2.1,1.5c0,0,0,0,0.1,0.1c1.9,1.3,3.1,2.6,3.4,3.6
									c0.1,0.2,0.1,0.4,0.1,0.6c0,0.8-0.4,1.1-1.1,1.1c-0.6,0-1.3-0.3-2.2-0.8c-1.8-1-4.1-2.8-6.2-6.3L504,290
									c2.2,4,4.3,6.3,6.8,8.1v3.3l5.1,2.9v-3.4c1.6,0.6,3.1,0.8,4.3,0.5c1.3-0.4,2.2-1.5,2.4-3.4v0c0-0.3,0-0.5,0-0.8
									C522.7,295.6,522.3,294.1,521.8,292.7z"/>
							</g>
						</g>
					</g>
					<g>
						
							<linearGradient id="SVGID_20_" gradientUnits="userSpaceOnUse" x1="428.1606" y1="313.7581" x2="525.9178" y2="313.7581" gradientTransform="matrix(1 0 0 1 0 -8)">
							<stop  offset="1.694780e-03" style="stop-color:#00D4C8"/>
							<stop  offset="1" style="stop-color:#00D2C7;stop-opacity:0"/>
						</linearGradient>
						<path class="st33" d="M572.8,348.3V231.4c0,8.1-5.4,16.3-16.2,22.5c-21.5,12.4-56.4,12.4-78,0c-10.8-6.2-16.2-14.4-16.2-22.5
							v116.9l0,0c0,8.1,5.4,16.3,16.2,22.5c21.5,12.4,56.4,12.4,78,0C567.4,364.6,572.8,356.4,572.8,348.3z"/>
						
							<linearGradient id="SVGID_21_" gradientUnits="userSpaceOnUse" x1="595.3117" y1="313.7581" x2="526.6932" y2="313.7581" gradientTransform="matrix(1 0 0 1 0 -8)">
							<stop  offset="1.694780e-03" style="stop-color:#00D4C8"/>
							<stop  offset="1" style="stop-color:#00D2C7;stop-opacity:0"/>
						</linearGradient>
						<path class="st34" d="M572.8,348.3V231.4c0,8.1-5.4,16.3-16.2,22.5c-21.5,12.4-56.4,12.4-78,0c-10.8-6.2-16.2-14.4-16.2-22.5
							v116.9l0,0c0,8.1,5.4,16.3,16.2,22.5c21.5,12.4,56.4,12.4,78,0C567.4,364.6,572.8,356.4,572.8,348.3z"/>
						
							<linearGradient id="SVGID_22_" gradientUnits="userSpaceOnUse" x1="517.6157" y1="188.2516" x2="517.6157" y2="297.4083" gradientTransform="matrix(1 0 0 1 0 -8)">
							<stop  offset="1.694780e-03" style="stop-color:#00D4C8"/>
							<stop  offset="1" style="stop-color:#00D2C7;stop-opacity:0"/>
						</linearGradient>
						<ellipse class="st35" cx="517.6" cy="231.4" rx="55.1" ry="31.8"/>
					</g>
				</g>
				<path class="st10" d="M470.7,297.9L470.7,297.9c-2.3-1.3-3.8-3.8-3.8-6.5v-33.8c0-1.1,1.2-1.8,2.2-1.3l0,0
					c2.4,1.4,3.8,3.9,3.8,6.7v33.5C473,297.7,471.7,298.5,470.7,297.9z"/>
				<path class="st10" d="M470.7,320.7L470.7,320.7c-2.3-1.3-3.8-3.8-3.8-6.5V307c0-1.1,1.2-1.8,2.2-1.3l0,0
					c2.4,1.4,3.8,3.9,3.8,6.7v7C473,320.5,471.7,321.3,470.7,320.7z"/>
			</g>
			<g>
				<path class="st8" d="M267.3,249.6v-49.3H157v49.3l0,0c0,8.1,5.4,16.3,16.2,22.5c21.5,12.4,56.4,12.4,78,0
					C261.9,265.9,267.3,257.8,267.3,249.6z"/>
				
					<linearGradient id="SVGID_23_" gradientUnits="userSpaceOnUse" x1="203.9089" y1="248.8847" x2="286.8061" y2="248.8847" gradientTransform="matrix(1 0 0 1 0 -8)">
					<stop  offset="0" style="stop-color:#FFFFFF;stop-opacity:0"/>
					<stop  offset="1" style="stop-color:#662D8D"/>
				</linearGradient>
				<path class="st36" d="M267.3,249.6v-49.3H157v49.3l0,0c0,8.1,5.4,16.3,16.2,22.5c21.5,12.4,56.4,12.4,78,0
					C261.9,265.9,267.3,257.8,267.3,249.6z"/>
				<ellipse class="st10" cx="212.1" cy="200.3" rx="55.1" ry="31.8"/>
				<g>
					
						<linearGradient id="SVGID_24_" gradientUnits="userSpaceOnUse" x1="212.1373" y1="150.9863" x2="212.1373" y2="260.1432" gradientTransform="matrix(1 0 0 1 0 -8)">
						<stop  offset="1.694780e-03" style="stop-color:#00D4C8"/>
						<stop  offset="1" style="stop-color:#00D2C7;stop-opacity:0"/>
					</linearGradient>
					<ellipse class="st37" cx="212.1" cy="194.1" rx="55.1" ry="31.8"/>
					<g>
						<circle class="st38" cx="248" cy="105.4" r="3.7"/>
						<circle class="st38" cx="244.4" cy="184.5" r="3.7"/>
						<path class="st38" d="M185,156.3c0,2-1.6,3.7-3.7,3.7c-2,0-3.7-1.6-3.7-3.7c0-2,1.6-3.7,3.7-3.7
							C183.4,152.6,185,154.2,185,156.3z"/>
						<path class="st38" d="M243,89.9c0,1.3-1,2.3-2.3,2.3s-2.3-1-2.3-2.3c0-1.3,1-2.3,2.3-2.3S243,88.6,243,89.9z"/>
						<path class="st38" d="M232.7,194.1c0,1.3-1,2.3-2.3,2.3c-1.3,0-2.3-1-2.3-2.3s1-2.3,2.3-2.3
							C231.6,191.8,232.7,192.9,232.7,194.1z"/>
						<path class="st38" d="M183.2,86.6c0,1.3-1,2.3-2.3,2.3s-2.3-1-2.3-2.3c0-1.3,1-2.3,2.3-2.3S183.2,85.3,183.2,86.6z"/>
						<path class="st38" d="M260.2,154.6c0,1.3-1,2.3-2.3,2.3c-1.3,0-2.3-1-2.3-2.3s1-2.3,2.3-2.3
							C259.2,152.3,260.2,153.3,260.2,154.6z"/>
						<path class="st38" d="M177.6,188.2c0,1.3-1,2.3-2.3,2.3s-2.3-1-2.3-2.3s1-2.3,2.3-2.3S177.6,186.9,177.6,188.2z"/>
						<g>
							<path class="st38" d="M246.7,145.7c0,0.2,0,0.4,0,0.5c0,2.2-0.2,4.2-0.6,6c-0.2,1.1-0.5,2.2-0.8,3.2
								c-1.4,4.3-3.8,7.5-6.9,9.5l0,0l-0.3,0.2c-0.2,0.1-0.3,0.2-0.5,0.3l-8.5,4.9l-1.9-3.3c-3.3-0.5-6.9-1.7-10.7-3.9
								c-16.7-9.6-30.3-33.2-30.3-52.5c0-2,0.2-3.8,0.4-5.5c0.2-1.1,0.4-2.1,0.7-3.1c0.2-0.8,0.5-1.6,0.8-2.3l-2-3.4l8.6-5
								c0.3-0.2,0.6-0.3,0.9-0.5l0.5-0.3l0,0c3.5-1.7,7.7-2,12.5-0.8c1,0.3,2,0.6,3,1c1.6,0.6,3.3,1.4,5,2.4
								c0.1,0.1,0.3,0.2,0.4,0.2c0.7,0.4,1.5,0.9,2.2,1.4c1.5,1,2.9,2,4.3,3.2c0.6,0.5,1.3,1.1,1.9,1.6c1.2,1.1,2.4,2.3,3.6,3.6
								c0.5,0.6,1.1,1.2,1.6,1.8c1.1,1.3,2.1,2.6,3.1,3.9c0.4,0.6,0.9,1.3,1.3,1.9c0.9,1.3,1.8,2.8,2.7,4.2c0.4,0.7,0.8,1.4,1.2,2
								c0.8,1.5,1.6,2.9,2.2,4.4c0.3,0.7,0.7,1.4,1,2.1c0.7,1.6,1.3,3.1,1.8,4.7c0.3,0.8,0.5,1.5,0.7,2.3c0.5,1.7,0.9,3.3,1.3,5
								c0.2,0.8,0.3,1.6,0.5,2.4c0.3,1.8,0.5,3.6,0.6,5.4C246.7,144.3,246.7,145,246.7,145.7z"/>
							
								<linearGradient id="SVGID_25_" gradientUnits="userSpaceOnUse" x1="208.3654" y1="120.629" x2="240.6634" y2="182.8098" gradientTransform="matrix(1 0 0 1 0 -8)">
								<stop  offset="0" style="stop-color:#FFFFFF;stop-opacity:0"/>
								<stop  offset="1" style="stop-color:#662D8D"/>
							</linearGradient>
							<path class="st39" d="M246.7,145.7c0,0.2,0,0.4,0,0.5c0,2.2-0.2,4.2-0.6,6c-0.2,1.1-0.5,2.2-0.8,3.2
								c-1.4,4.3-3.8,7.5-6.9,9.5l0,0l-0.3,0.2c-0.2,0.1-0.3,0.2-0.5,0.3l-8.5,4.9l-1.9-3.3c-3.3-0.5-6.9-1.7-10.7-3.9
								c-16.7-9.6-30.3-33.2-30.3-52.5c0-2,0.2-3.8,0.4-5.5c0.2-1.1,0.4-2.1,0.7-3.1c0.2-0.8,0.5-1.6,0.8-2.3l-2-3.4l8.6-5
								c0.3-0.2,0.6-0.3,0.9-0.5l0.5-0.3l0,0c3.5-1.7,7.7-2,12.5-0.8c1,0.3,2,0.6,3,1c1.6,0.6,3.3,1.4,5,2.4
								c0.1,0.1,0.3,0.2,0.4,0.2c0.7,0.4,1.5,0.9,2.2,1.4c1.5,1,2.9,2,4.3,3.2c0.6,0.5,1.3,1.1,1.9,1.6c1.2,1.1,2.4,2.3,3.6,3.6
								c0.5,0.6,1.1,1.2,1.6,1.8c1.1,1.3,2.1,2.6,3.1,3.9c0.4,0.6,0.9,1.3,1.3,1.9c0.9,1.3,1.8,2.8,2.7,4.2c0.4,0.7,0.8,1.4,1.2,2
								c0.8,1.5,1.6,2.9,2.2,4.4c0.3,0.7,0.7,1.4,1,2.1c0.7,1.6,1.3,3.1,1.8,4.7c0.3,0.8,0.5,1.5,0.7,2.3c0.5,1.7,0.9,3.3,1.3,5
								c0.2,0.8,0.3,1.6,0.5,2.4c0.3,1.8,0.5,3.6,0.6,5.4C246.7,144.3,246.7,145,246.7,145.7z"/>
							
								<ellipse transform="matrix(0.866 -0.5 0.5 0.866 -38.7511 121.7553)" class="st40" cx="207.8" cy="133.2" rx="24.7" ry="42.8"/>
							
								<ellipse transform="matrix(0.866 -0.5 0.5 0.866 -38.7512 121.7552)" class="st41" cx="207.8" cy="133.2" rx="19.5" ry="33.8"/>
							
								<ellipse transform="matrix(0.866 -0.5 0.5 0.866 -38.751 121.7552)" class="st41" cx="207.8" cy="133.2" rx="13.6" ry="23.6"/>
							<path class="st41" d="M217.7,138.9c0,6.3-4.4,8.8-9.9,5.7c-5.4-3.1-9.9-10.8-9.9-17.1c0-6.3,4.4-8.8,9.9-5.7
								C213.3,124.9,217.7,132.6,217.7,138.9z"/>
							<path class="st10" d="M211.7,135.4c0,2.5-1.7,3.5-3.9,2.2s-3.9-4.2-3.9-6.7s1.7-3.5,3.9-2.2C210,130,211.7,133,211.7,135.4z"
								/>
						</g>
					</g>
					<g>
						
							<linearGradient id="SVGID_26_" gradientUnits="userSpaceOnUse" x1="122.6805" y1="159.6045" x2="220.4375" y2="159.6045" gradientTransform="matrix(1 0 0 1 0 -8)">
							<stop  offset="1.694780e-03" style="stop-color:#00D4C8"/>
							<stop  offset="1" style="stop-color:#00D2C7;stop-opacity:0"/>
						</linearGradient>
						<path class="st42" d="M267.3,194.1V77.2c0,8.1-5.4,16.3-16.2,22.5c-21.5,12.4-56.4,12.4-78,0C162.4,93.5,157,85.4,157,77.2
							v116.9l0,0c0,8.1,5.4,16.3,16.2,22.5c21.5,12.4,56.4,12.4,78,0C261.9,210.4,267.3,202.3,267.3,194.1z"/>
						
							<linearGradient id="SVGID_27_" gradientUnits="userSpaceOnUse" x1="292.2837" y1="157.1468" x2="223.6654" y2="157.1468" gradientTransform="matrix(1 0 0 1 0 -8)">
							<stop  offset="1.694780e-03" style="stop-color:#00D4C8"/>
							<stop  offset="1" style="stop-color:#00D2C7;stop-opacity:0"/>
						</linearGradient>
						<path class="st43" d="M269.7,191.7V74.8c0,8.1-5.4,16.3-16.2,22.5c-21.5,12.4-56.4,12.4-78,0c-10.8-6.2-16.2-14.4-16.2-22.5
							v116.9l0,0c0,8.1,5.4,16.3,16.2,22.5c21.5,12.4,56.4,12.4,78,0C264.3,208,269.7,199.8,269.7,191.7z"/>
						
							<linearGradient id="SVGID_28_" gradientUnits="userSpaceOnUse" x1="212.1373" y1="34.0954" x2="212.1373" y2="143.2522" gradientTransform="matrix(1 0 0 1 0 -8)">
							<stop  offset="1.694780e-03" style="stop-color:#00D4C8"/>
							<stop  offset="1" style="stop-color:#00D2C7;stop-opacity:0"/>
						</linearGradient>
						<ellipse class="st44" cx="212.1" cy="77.2" rx="55.1" ry="31.8"/>
					</g>
				</g>
				<path class="st10" d="M165.3,143.7L165.3,143.7c-2.3-1.3-3.8-3.8-3.8-6.5v-33.8c0-1.1,1.2-1.8,2.2-1.3l0,0
					c2.4,1.4,3.8,3.9,3.8,6.7v33.5C167.5,143.6,166.3,144.3,165.3,143.7z"/>
				<path class="st10" d="M165.3,166.5L165.3,166.5c-2.3-1.3-3.8-3.8-3.8-6.5v-7.2c0-1.1,1.2-1.8,2.2-1.3l0,0
					c2.4,1.4,3.8,3.9,3.8,6.7v7C167.5,166.4,166.3,167.1,165.3,166.5z"/>
			</g>
			<g>
				<path class="st45" d="M380.3,333.7c0,0-9.1,9.7-9.7,19.3l1.8,3.8l3.7-2.7c0,0,2.6-12.6,7.3-16.4L380.3,333.7z"/>
				<path class="st46" d="M401.7,447.1c0,0,0.6,6-2.3,5.7c-3.4-0.4-14-7.5-11.6-9.7c2.3-2.2,11.2,1.8,11.2,1.8L401.7,447.1z"/>
				<path class="st46" d="M382.9,456c0,0,0.6,6-2.3,5.7c-3.4-0.4-14-7.5-11.6-9.7s11.2,1.8,11.2,1.8L382.9,456z"/>
				<rect x="385.6" y="306.6" class="st47" width="6.3" height="8.9"/>
				<path class="st45" d="M378.9,354.4c0,0-10.1,23-2.5,102.1c0,0.4,0.3,0.8,0.6,1c1.3,0.8,4.7,2.1,6.4-2.3c0-0.1,0.1-0.2,0.1-0.4
					L390,372c0-1.3,0.7-1.4,0.9-0.1l4,75.7c0,0.6,0.4,1.1,0.9,1.3c1.8,0.7,5.6,1.4,6.4-4.1c0,0,6.9-81.9-1.1-93L378.9,354.4z"/>
				<path class="st46" d="M401.1,349.2c-0.2,0.3-0.4,0.7-0.7,0.9c-2.3,2.3-8.5,6.6-20.8,2.2c-0.3-0.1-0.5-0.2-0.7-0.4v2.5
					c0.2,0.2,0.5,0.3,0.7,0.4c12.3,4.4,18.5,0.2,20.8-2.2c0.3-0.3,0.5-0.6,0.7-0.9V349.2z"/>
				<path class="st10" d="M426.2,274.1c0,0,0-5.4,0.7-5.5c0.5-0.1,0.5,1.7,0.5,1.7s0.6-4,1.5-3.8c0.3,0.1-0.1,2.5-0.1,2.5
					s0.4-1.4,2.6,0c0.7,0.4,0.5,1.7-2.1,5.9L426.2,274.1z"/>
				<path class="st48" d="M399.8,310c0,0,18.8-1.6,26.2-36.4c0,0,2-0.4,3.6,1.3c0,0-1.1,41.8-27.1,49.8L399.8,310z"/>
				<path class="st49" d="M385.6,312.5l6.3-1.4l9.9-1.3c2.4-0.3,4.2,3.2,4.3,6.9c0.3,7.1-4.5,31.4-4.5,31.4c-0.1,1-0.5,1.9-1.1,2.6
					c-2.3,2.3-8.5,6.6-20.9,2.2c-0.8-0.3-1.4-1-1.5-1.8l-4.6-28.7c-0.2-1.5,0.4-3,1.6-3.9L385.6,312.5z"/>
				<path class="st10" d="M377.8,295.5c0,0,0.8,8.6,4.3,13c3.5,4.4,10.4-2.9,11.4-5s2.7-15.4-8-15.4
					C378.6,288.1,377.4,292.4,377.8,295.5z"/>
				<path class="st45" d="M388,300.8c0,0-3.6-2.5-4.9-6.8c0,0-0.8-0.5-5.1,3.2c0,0-4.9,0-2.6-5.2c2.3-5.2,11.7-11.7,16.3-6.6
					c0,0,8.7-1.4,7,9.8c-2.2,14.8-9.1,12.3-10.9,9C386,300.8,388,300.8,388,300.8z"/>
				<path class="st10" d="M385.8,299.1c0,0,1.4-2.8,2.6-1.1c1.2,1.7-0.2,5.1-2.8,5.5L385.8,299.1z"/>
				<polygon class="st45" points="346.6,309.9 360,323.2 373.3,315.3 360,301.6 				"/>
				<polyline class="st50" points="358.8,317 358.8,314.1 361.6,314.1 361.6,307.8 				"/>
				<polyline class="st50" points="359,309.5 361.5,307 364.3,309.8 				"/>
				<path class="st10" d="M352.4,315.7c0-0.1,1.1-1.2,1.9-2.1c0.2-0.2,0.6,0,0.6,0.3l-0.6,2c0,0,2.8-0.8,1.2,3.9l-2.8,0.7
					L352.4,315.7z"/>
				<path class="st48" d="M355.8,319.7c0,0,14.6,26.2,5.9,27.9c-8.7,1.6-9.1-27-9.1-27S353.4,319.4,355.8,319.7z"/>
				<path class="st48" d="M375.2,318.6c0,0-3.9,2-9.4,9.7c-7.4,10.5-10.8,16.8-3.9,19.2c1.7,0.6,13.8-12,13.8-12
					S380.5,325,375.2,318.6z"/>
				<path class="st48" d="M384.3,313.2l1.3-2.2c0,0,2.1-1.3,6.3-1.4l1.5,1.3C393.3,310.9,393,312.4,384.3,313.2z"/>
			</g>
			<g>
				<polygon class="st8" points="256.2,287.3 208.8,394.3 204.5,391.8 204.5,329.6 				"/>
				<polygon class="st8" points="260.5,289.9 260.5,364.4 208.8,394.3 208.8,332.1 				"/>
				
					<linearGradient id="SVGID_29_" gradientUnits="userSpaceOnUse" x1="209.3982" y1="299.5853" x2="267.9568" y2="416.7021" gradientTransform="matrix(1 0 0 1 0 -8)">
					<stop  offset="0" style="stop-color:#FFFFFF;stop-opacity:0"/>
					<stop  offset="1" style="stop-color:#662D8D"/>
				</linearGradient>
				<polygon class="st51" points="260.5,289.9 260.5,364.4 208.8,394.3 208.8,332.1 				"/>
			</g>
			<g>
				<polygon class="st8" points="339.6,335.4 292.1,442.4 287.8,439.8 287.8,377.6 				"/>
				<polygon class="st8" points="343.9,337.9 343.9,412.5 292.1,442.4 292.1,380.2 				"/>
				
					<linearGradient id="SVGID_30_" gradientUnits="userSpaceOnUse" x1="249.2617" y1="398.1461" x2="408.3932" y2="398.1461" gradientTransform="matrix(1 0 0 1 0 -8)">
					<stop  offset="0" style="stop-color:#FFFFFF;stop-opacity:0"/>
					<stop  offset="1" style="stop-color:#662D8D"/>
				</linearGradient>
				<polygon class="st52" points="343.9,337.9 343.9,412.5 292.1,442.4 292.1,380.2 				"/>
			</g>
			<polygon class="st8" points="292.1,384.3 204.5,333.7 343.9,337.9 343.9,342.1 			"/>
			
				<linearGradient id="SVGID_31_" gradientUnits="userSpaceOnUse" x1="249.2615" y1="367.0387" x2="408.3924" y2="367.0387" gradientTransform="matrix(1 0 0 1 0 -8)">
				<stop  offset="0" style="stop-color:#FFFFFF;stop-opacity:0"/>
				<stop  offset="1" style="stop-color:#662D8D"/>
			</linearGradient>
			<polygon class="st53" points="292.1,384.3 204.5,333.7 343.9,337.9 343.9,342.1 			"/>
			<polygon class="st10" points="292.1,380.2 204.5,329.6 256.2,287.3 343.9,337.9 			"/>
			<polygon class="st45" points="290.9,373.2 214.7,329.2 257.4,294.3 333.7,338.3 			"/>
			
				<linearGradient id="SVGID_32_" gradientUnits="userSpaceOnUse" x1="268.1449" y1="306.0002" x2="264.0522" y2="346.3438" gradientTransform="matrix(1 0 0 1 0 -8)">
				<stop  offset="3.946110e-03" style="stop-color:#FFFFFF;stop-opacity:0"/>
				<stop  offset="1" style="stop-color:#FDC870"/>
			</linearGradient>
			<path class="st54" d="M271.6,334.6l-29.1-16.8c-0.7-0.4-0.7-1.3-0.1-1.8l15.3-12.5c0.8-0.7,2-0.8,2.9-0.2l28.7,16.6
				c0.9,0.5,1,1.7,0.2,2.3l-15,12.2C273.7,335.1,272.6,335.2,271.6,334.6z"/>
			
				<linearGradient id="SVGID_33_" gradientUnits="userSpaceOnUse" x1="254.3444" y1="330.7326" x2="244.0641" y2="350.2297" gradientTransform="matrix(1 0 0 1 0 -8)">
				<stop  offset="0" style="stop-color:#BA68C8;stop-opacity:0"/>
				<stop  offset="1" style="stop-color:#BA68C8"/>
			</linearGradient>
			<path class="st55" d="M258.6,345l-29.1-16.8c-0.7-0.4-0.7-1.3-0.1-1.8l7.6-6c0.8-0.7,2-0.8,2.9-0.2l28.7,16.6
				c0.9,0.5,1,1.7,0.2,2.3l-7.2,5.8C260.7,345.5,259.5,345.6,258.6,345z"/>
			<g>
				
					<linearGradient id="SVGID_34_" gradientUnits="userSpaceOnUse" x1="278.4892" y1="345.9039" x2="268.9225" y2="364.0477" gradientTransform="matrix(1 0 0 1 0 -8)">
					<stop  offset="1.694780e-03" style="stop-color:#00D4C8"/>
					<stop  offset="1" style="stop-color:#00D2C7;stop-opacity:0"/>
				</linearGradient>
				<path class="st56" d="M273.3,353.9l-9.5-5.4c-0.7-0.4-0.7-1.3-0.1-1.8l7.6-6c0.8-0.7,2-0.8,2.9-0.2l9.1,5.2
					c0.9,0.5,1,1.7,0.2,2.3l-7.2,5.8C275.4,354.3,274.2,354.4,273.3,353.9z"/>
				
					<linearGradient id="SVGID_35_" gradientUnits="userSpaceOnUse" x1="293.5876" y1="345.5334" x2="284.3358" y2="375.6017" gradientTransform="matrix(1 0 0 1 0 -8)">
					<stop  offset="1.694780e-03" style="stop-color:#EF5350"/>
					<stop  offset="1" style="stop-color:#EF5350;stop-opacity:0"/>
				</linearGradient>
				<path class="st57" d="M288.2,362.2l-10.1-6c-0.7-0.4-0.7-1.3-0.1-1.8l7.6-6c0.8-0.7,2-0.8,2.9-0.2l9.7,5.8
					c0.9,0.5,1,1.7,0.2,2.3L291,362C290.2,362.7,289.1,362.8,288.2,362.2z"/>
			</g>
			<polygon class="st8" points="292.1,384.3 292.1,380.2 204.5,329.6 204.5,333.7 			"/>
			<path class="st58" d="M248.3,316.9c0.1-0.2,14.1-1.1,14.1-1.1l2.7,4.9H282l-3.7-1.7"/>
			<line class="st58" x1="282" y1="320.7" x2="282" y2="323.6"/>
			<ellipse class="st40" cx="297.7" cy="326.5" rx="1.8" ry="1"/>
			<ellipse class="st59" cx="302.8" cy="329.4" rx="1.8" ry="1"/>
			<path class="st40" d="M309.1,333c-0.7,0.4-1.8,0.4-2.5,0c-0.7-0.4-0.7-1,0-1.4c0.7-0.4,1.8-0.4,2.5,0
				C309.8,332,309.8,332.6,309.1,333z"/>
			<path class="st40" d="M314.2,336c-0.7,0.4-1.8,0.4-2.5,0c-0.7-0.4-0.7-1,0-1.4c0.7-0.4,1.8-0.4,2.5,0
				C314.9,334.9,314.9,335.6,314.2,336z"/>
			<path class="st40" d="M319.3,338.9c-0.7,0.4-1.8,0.4-2.5,0c-0.7-0.4-0.7-1,0-1.4c0.7-0.4,1.8-0.4,2.5,0
				C320,337.8,320,338.5,319.3,338.9z"/>
			<path class="st40" d="M294.8,330.4c-0.7,0.4-1.8,0.4-2.5,0c-0.7-0.4-0.7-1,0-1.4c0.7-0.4,1.8-0.4,2.5,0
				C295.5,329.4,295.5,330,294.8,330.4z"/>
			<path class="st40" d="M299.9,333.3c-0.7,0.4-1.8,0.4-2.5,0c-0.7-0.4-0.7-1,0-1.4c0.7-0.4,1.8-0.4,2.5,0
				C300.6,332.3,300.6,332.9,299.9,333.3z"/>
			<path class="st40" d="M305,336.2c-0.7,0.4-1.8,0.4-2.5,0c-0.7-0.4-0.7-1,0-1.4c0.7-0.4,1.8-0.4,2.5,0
				C305.6,335.2,305.6,335.8,305,336.2z"/>
			<path class="st59" d="M310,339.1c-0.7,0.4-1.8,0.4-2.5,0c-0.7-0.4-0.7-1,0-1.4s1.8-0.4,2.5,0C310.7,338.1,310.7,338.7,310,339.1z
				"/>
			<path class="st59" d="M315.1,342c-0.7,0.4-1.8,0.4-2.5,0c-0.7-0.4-0.7-1,0-1.4c0.7-0.4,1.8-0.4,2.5,0
				C315.8,341,315.8,341.6,315.1,342z"/>
			<path class="st59" d="M290.6,333.6c-0.7,0.4-1.8,0.4-2.5,0c-0.7-0.4-0.7-1,0-1.4c0.7-0.4,1.8-0.4,2.5,0
				C291.3,332.6,291.3,333.2,290.6,333.6z"/>
			<path class="st40" d="M295.7,336.5c-0.7,0.4-1.8,0.4-2.5,0c-0.7-0.4-0.7-1,0-1.4c0.7-0.4,1.8-0.4,2.5,0
				C296.3,335.5,296.3,336.1,295.7,336.5z"/>
			<ellipse class="st59" cx="299.5" cy="338.7" rx="1.8" ry="1"/>
			<path class="st40" d="M305.9,342.3c-0.7,0.4-1.8,0.4-2.5,0c-0.7-0.4-0.7-1,0-1.4c0.7-0.4,1.8-0.4,2.5,0
				C306.5,341.3,306.5,341.9,305.9,342.3z"/>
			<path class="st40" d="M311,345.2c-0.7,0.4-1.8,0.4-2.5,0c-0.7-0.4-0.7-1,0-1.4c0.7-0.4,1.8-0.4,2.5,0
				C311.6,344.2,311.6,344.8,311,345.2z"/>
			<path class="st40" d="M286.4,336.8c-0.7,0.4-1.8,0.4-2.5,0c-0.7-0.4-0.7-1,0-1.4c0.7-0.4,1.8-0.4,2.5,0
				C287.1,335.8,287.1,336.4,286.4,336.8z"/>
			<path class="st40" d="M291.5,339.7c-0.7,0.4-1.8,0.4-2.5,0c-0.7-0.4-0.7-1,0-1.4c0.7-0.4,1.8-0.4,2.5,0
				C292.2,338.6,292.2,339.3,291.5,339.7z"/>
			<path class="st40" d="M296.6,342.6c-0.7,0.4-1.8,0.4-2.5,0c-0.7-0.4-0.7-1,0-1.4c0.7-0.4,1.8-0.4,2.5,0
				C297.3,341.5,297.3,342.2,296.6,342.6z"/>
			<path class="st40" d="M301.7,345.5c-0.7,0.4-1.8,0.4-2.5,0c-0.7-0.4-0.7-1,0-1.4c0.7-0.4,1.8-0.4,2.5,0
				C302.3,344.5,302.3,345.1,301.7,345.5z"/>
			<path class="st59" d="M306.8,348.4c-0.7,0.4-1.8,0.4-2.5,0c-0.7-0.4-0.7-1,0-1.4c0.7-0.4,1.8-0.4,2.5,0
				C307.4,347.4,307.4,348,306.8,348.4z"/>
			<ellipse class="st59" cx="281" cy="339.2" rx="1.8" ry="1"/>
			<ellipse class="st40" cx="286" cy="342.2" rx="1.8" ry="1"/>
			<path class="st59" d="M292.4,345.8c-0.7,0.4-1.8,0.4-2.5,0c-0.7-0.4-0.7-1,0-1.4c0.7-0.4,1.8-0.4,2.5,0
				C293.1,344.7,293.1,345.4,292.4,345.8z"/>
			<ellipse class="st40" cx="296.2" cy="348" rx="1.8" ry="1"/>
			<path class="st59" d="M302.6,351.6c-0.7,0.4-1.8,0.4-2.5,0c-0.7-0.4-0.7-1,0-1.4c0.7-0.4,1.8-0.4,2.5,0
				C303.3,350.5,303.3,351.2,302.6,351.6z"/>
			<g>
				<line class="st60" x1="238.1" y1="323.2" x2="263.9" y2="338.3"/>
				<line class="st60" x1="236.2" y1="324.7" x2="262" y2="339.8"/>
				<line class="st60" x1="234.3" y1="326.2" x2="260.1" y2="341.3"/>
			</g>
			<g>
				<path class="st45" d="M224.8,324.8c0,0,9.6,10.2,10.2,20.4l-1.9,4l-3.9-2.8c0,0-2.8-13.4-7.7-17.3L224.8,324.8z"/>
				<path class="st46" d="M202.3,444.5c0,0-0.7,6.3,2.4,6c3.6-0.4,14.8-7.9,12.3-10.3c-2.5-2.4-11.8,1.9-11.8,1.9L202.3,444.5z"/>
				<path class="st46" d="M222.1,453.8c0,0-0.7,6.3,2.4,6c3.6-0.4,14.8-7.9,12.3-10.3c-2.5-2.4-11.8,1.9-11.8,1.9L222.1,453.8z"/>
				<rect x="212.7" y="296.2" class="st10" width="6.6" height="9.4"/>
				<path class="st45" d="M226.4,346.7c0,0,10.6,24.3,2.7,107.8c0,0.4-0.3,0.8-0.6,1c-1.4,0.8-4.9,2.2-6.8-2.5
					c0-0.1-0.1-0.3-0.1-0.4l-6.9-87.4c-0.1-1.4-0.8-1.5-0.9-0.1l-4.3,79.9c0,0.6-0.4,1.1-1,1.3c-1.9,0.7-6,1.5-6.7-4.4
					c0,0-7.2-86.5,1.2-98.2L226.4,346.7z"/>
				<path class="st46" d="M202.9,341.2c0.2,0.4,0.4,0.7,0.7,1c2.4,2.5,9,7,22,2.3c0.3-0.1,0.6-0.3,0.8-0.5v2.7
					c-0.2,0.2-0.5,0.4-0.8,0.5c-13,4.7-19.6,0.2-22-2.3c-0.3-0.3-0.5-0.6-0.7-1V341.2z"/>
				<path class="st49" d="M219.3,302.4l-6.6-1.5l-10.4-1.4c-2.6-0.3-4.4,3.4-4.6,7.3c-0.4,7.5,4.7,33.2,4.7,33.2
					c0.1,1,0.5,2,1.2,2.8c2.4,2.5,8.9,7,22,2.3c0.8-0.3,1.4-1,1.6-1.9l4.9-30.3c0.2-1.6-0.4-3.2-1.7-4.1L219.3,302.4z"/>
				<path class="st10" d="M227.5,284.5c0,0-0.8,9-4.5,13.7c-3.7,4.6-11-3-12.1-5.3c-1.1-2.2-2.8-16.2,8.4-16.2
					C226.6,276.7,227.9,281.2,227.5,284.5z"/>
				<path class="st45" d="M216.7,290.1c0,0,3.8-2.7,5.2-7.2c0,0,0.8-0.5,5.4,3.4c0,0,5.2,0,2.8-5.5c-2.4-5.5-12.4-12.4-17.2-6.9
					c0,0-9.1-1.5-7.4,10.3c2.3,15.6,9.6,13,11.5,9.5C218.8,290.1,216.7,290.1,216.7,290.1z"/>
				<path class="st10" d="M219.1,288.3c0,0-1.5-3-2.8-1.2c-1.3,1.8,0.3,5.4,3,5.8L219.1,288.3z"/>
				<path class="st10" d="M273.8,341.5c0.1,0,1,1.4,1.7,2.4c0.2,0.3-0.2,0.7-0.5,0.5l-1.9-1.1c0,0,0.1,3.1-4.3,0.3l-0.1-3
					L273.8,341.5z"/>
				<path class="st48" d="M269.7,340.6c0,0-27.5-15.7-29.4-6.5c-1.8,9.2,28.4,9.9,28.4,9.9S270,343.1,269.7,340.6z"/>
				<path class="st48" d="M230.3,308.8c0,0,4.1,2.1,9.9,10.3c7.8,11.1,11.4,17.8,4.1,20.2c-1.8,0.6-14.5-12.7-14.5-12.7
					S224.6,315.6,230.3,308.8z"/>
				<path class="st48" d="M220.6,303.2l-1.3-2.3c0,0-2.3-1.4-6.6-1.5l-1.6,1.3C211.1,300.8,211.4,302.3,220.6,303.2z"/>
			</g>
		</g>
		
			<linearGradient id="SVGID_36_" gradientUnits="userSpaceOnUse" x1="-323.3134" y1="351.7694" x2="-323.3134" y2="211.5701" gradientTransform="matrix(-0.999 -4.390000e-02 4.390000e-02 -0.999 206.8444 440.4968)">
			<stop  offset="1.860120e-03" style="stop-color:#AC24B9"/>
			<stop  offset="1" style="stop-color:#2E2142"/>
		</linearGradient>
		<path class="st61" d="M518.7,135.5c5.5,14.8,25.8,33.8,42.4,26.7c8.3-3.5,12.7-15.1,7.2-22.1c-3.9-5-8.5-8.7-13.6-12.6
			c-4.5-3.4-9.6-6.3-13.1-10.8s-8.5-8.7-14.2-8.1c-11.9,1.3-11.9,17.7-9.1,26.1C518.5,134.9,518.6,135.2,518.7,135.5z"/>
	</g>
</g>
<g id="Designed_by_Freepik">
</g>
</svg>
